# xmcd CD database file
#
# Track frame offsets:
#	150
#	24052
#	45137
#	59852
#	76147
#	93977
#	111327
#	125162
#	148315
#	164277
#	189027
#
# Disc length: 2831 seconds
#
# Revision: 1
# Processed by: cddbd v1.4PL0 Copyright (c) Steve Scherf et al.
# Submitted via: CDex 1.50beta10
#
DISCID=8b0b0d0b
DTITLE=Blues Engineers - Blues Engineers
DYEAR=1997
DGENRE=Blues
TTITLE0=Killing Floor
TTITLE1=Good morning little schoolgirl
TTITLE2=Drowning Man
TTITLE3=Earning your living
TTITLE4=Can't be satisfied
TTITLE5=Cold shoulder chicken
TTITLE6=Love demon
TTITLE7=Blues engineers
TTITLE8=You love me sometimes
TTITLE9=Rock in my heart
TTITLE10=Blues at 10.00
EXTD=YEAR: 1997
EXTT0=
EXTT1=
EXTT2=
EXTT3=
EXTT4=
EXTT5=
EXTT6=
EXTT7=
EXTT8=
EXTT9=
EXTT10=
PLAYORDER=
